<?xml version="1.0" encoding="utf-8" ?>
<svg xmlns="http://www.w3.org/2000/svg" xmlns:xlink="http://www.w3.org/1999/xlink" width="32" height="32" viewBox="0 0 32 32">
	<path d="M16 0C7.16344 0 0 7.16344 0 16L0 16.024C0 24.8606 7.13944 32 15.976 32L16 32C24.8366 32 32 24.8606 32 16.024L32 16C32 7.16344 24.8606 0 16.024 0L16 0Z" fill-rule="nonzero" transform="matrix(1 0 0 1 0 0)" fill="rgb(0, 122, 255)"/>
	<defs>
		<clipPath id="clipPath8864610267">
			<path d="M0 0L16 0L16 16L0 16L0 0Z" fill-rule="nonzero" transform="matrix(1 0 0 1 8 8)"/>
		</clipPath>
	</defs>
	<g clip-path="url(#clipPath8864610267)">
		<path d="M0 -0.666667C-0.368187 -0.666667 -0.666667 -0.368187 -0.666667 0L-0.666667 2.66667Q-0.666667 3.49509 -0.0808818 4.08088Q0.504905 4.66667 1.33333 4.66667L10.6667 4.66667Q11.4951 4.66667 12.0809 4.08088Q12.6667 3.49509 12.6667 2.66667L12.6667 0C12.6667 -0.368187 12.3682 -0.666667 12 -0.666667C11.6318 -0.666667 11.3333 -0.368187 11.3333 0L11.3333 2.66667Q11.3333 2.94281 11.1381 3.13807Q10.9428 3.33333 10.6667 3.33333L1.33333 3.33333Q1.05719 3.33333 0.86193 3.13807Q0.666667 2.94281 0.666667 2.66667L0.666667 0C0.666667 -0.368187 0.368187 -0.666667 0 -0.666667Z" fill-rule="evenodd" transform="matrix(1 0 0 1 10 18)" fill="rgb(255, 255, 255)"/>
		<path d="M7.13807 -0.471405C6.87772 -0.731752 6.45561 -0.731752 6.19526 -0.471404L3.33333 2.39052L0.471405 -0.471405C0.211057 -0.731752 -0.211057 -0.731752 -0.471405 -0.471404C-0.731752 -0.211057 -0.731752 0.211057 -0.471404 0.471405L2.86193 3.80474Q2.90836 3.85117 2.96295 3.88765Q3.01755 3.92413 3.07821 3.94925Q3.13887 3.97438 3.20327 3.98719Q3.26767 4 3.33333 4Q3.39899 4 3.46339 3.98719Q3.52779 3.97438 3.58846 3.94925Q3.64912 3.92413 3.70371 3.88765Q3.75831 3.85117 3.80474 3.80474L7.13807 0.471405C7.39842 0.211057 7.39842 -0.211057 7.13807 -0.471405Z" fill-rule="evenodd" transform="matrix(1 0 0 1 12.6667 14.6667)" fill="rgb(255, 255, 255)"/>
		<path d="M0 -0.666667C-0.368187 -0.666667 -0.666667 -0.368187 -0.666667 0L-0.666667 8C-0.666667 8.36819 -0.368187 8.66667 0 8.66667C0.368187 8.66667 0.666667 8.36819 0.666667 8L0.666667 0C0.666667 -0.368187 0.368187 -0.666667 0 -0.666667Z" fill-rule="evenodd" transform="matrix(1 0 0 1 16 10)" fill="rgb(255, 255, 255)"/>
	</g>
</svg>
