<?xml version="1.0" encoding="utf-8" ?>
<svg xmlns="http://www.w3.org/2000/svg" xmlns:xlink="http://www.w3.org/1999/xlink" width="48" height="48" viewBox="0 0 48 48">
	<defs>
		<clipPath id="clipPath2244889477">
			<path d="M0 0L48 0L48 48L0 48L0 0Z" fill-rule="nonzero" transform="matrix(1 0 0 1 0 0)"/>
		</clipPath>
	</defs>
	<g clip-path="url(#clipPath2244889477)">
		<defs>
			<mask id="mask6657983871" style="mask-type:alpha">
				<path d="M0 0L48 0L48 48L0 48L0 0Z" fill-rule="nonzero" transform="matrix(1 0 0 1 0 0)" fill="rgb(0, 0, 0)"/>
			</mask>
		</defs>
		<g mask="url(#mask6657983871)">
			<path d="M10 4.82843L16.5858 11.4142C17.3668 12.1953 18.6332 12.1953 19.4142 11.4142C20.1953 10.6332 20.1953 9.36683 19.4142 8.58579L11.4142 0.58579C11.3214 0.49293 11.2203 0.41002 11.1111 0.33706C11.002 0.2641 10.8867 0.202493 10.7654 0.15224C10.644 0.101987 10.519 0.06405 10.3902 0.03843C10.2614 0.01281 10.1313 0 10 0C9.86868 0 9.73862 0.01281 9.60982 0.03843C9.48102 0.06405 9.35595 0.101987 9.23463 0.15224C9.1133 0.202493 8.99804 0.2641 8.88886 0.33706C8.77966 0.41002 8.67864 0.49293 8.58579 0.58579L0.585788 8.58579C-0.195263 9.36683 -0.195263 10.6332 0.585788 11.4142C1.36683 12.1953 2.63317 12.1953 3.41421 11.4142L10 4.82843Z" fill-rule="evenodd" transform="matrix(1 0 0 1 14 22)" fill="rgb(0, 122, 255)"/>
			<path d="M2 0C0.89544 0 0 0.89544 0 2L0 20C0 21.1046 0.89544 22 2 22C3.10456 22 4 21.1046 4 20L4 2C4 0.89544 3.10456 0 2 0Z" fill-rule="evenodd" transform="matrix(1 0 0 1 22 22)" fill="rgb(0, 122, 255)"/>
			<path d="M43.3748 27.281C42.644 28.9569 41.4761 30.2323 39.871 31.1073C38.9012 31.636 38.5436 32.8509 39.0723 33.8207C39.601 34.7905 40.8158 35.148 41.7856 34.6194C44.1933 33.3068 45.9452 31.3937 47.0413 28.88C48.1374 26.3664 48.3473 23.7808 47.6709 21.1234C46.9945 18.4659 45.5741 16.2953 43.4096 14.6115C41.2451 12.9279 38.7918 12.0851 36.0496 12.0833L35.0172 12.0833C34.2789 9.91468 33.2132 8.01092 31.82 6.37208C30.1144 4.36561 27.9378 2.7796 25.2903 1.61405C22.6428 0.448504 20.0033 -0.0857902 17.3716 0.0111698C14.7399 0.10813 12.1468 0.835218 9.59224 2.19243C7.03771 3.54964 4.98375 5.29152 3.43038 7.41806C1.877 9.5446 0.842308 12.031 0.326299 14.8773C-0.189708 17.7236 -0.0937077 20.415 0.614299 22.9515C1.32231 25.488 2.63408 27.84 4.5496 30.0077C5.28103 30.8354 6.54497 30.9133 7.37265 30.1819C8.20034 29.4506 8.27836 28.1866 7.54693 27.3589C6.037 25.6503 5.01037 23.8227 4.46703 21.8762C3.92369 19.9296 3.8554 17.8344 4.26215 15.5908C4.6689 13.3472 5.46831 11.4095 6.6604 9.7775C7.85249 8.14555 9.45535 6.79466 11.469 5.72483C13.4827 4.65499 15.4993 4.08287 17.5189 4.00846C19.5385 3.93405 21.5917 4.35622 23.6786 5.27498C25.7655 6.19373 27.4635 7.42301 28.7724 8.96281C30.0813 10.5026 31.0212 12.3763 31.5919 14.584C31.6195 14.6905 31.6556 14.794 31.7002 14.8946C31.7449 14.9952 31.7975 15.0915 31.858 15.1834C31.9186 15.2754 31.9863 15.3617 32.0611 15.4424C32.1358 15.5232 32.2167 15.5972 32.3038 15.6646C32.3908 15.732 32.4828 15.7919 32.5797 15.844C32.6766 15.8962 32.7771 15.9402 32.8812 15.9757C32.9854 16.0114 33.0918 16.0382 33.2003 16.0562C33.3089 16.0743 33.4182 16.0833 33.5283 16.0833L36.047 16.0833C37.8751 16.0845 39.5107 16.6464 40.9536 17.7689C42.3966 18.8913 43.3436 20.3384 43.7945 22.1101C44.2454 23.8817 44.1055 25.6053 43.3748 27.281Z" fill-rule="evenodd" transform="matrix(1 0 0 1 -0.048269 3.9167)" fill="rgb(0, 122, 255)"/>
			<path d="M10 4.82843L16.5858 11.4142C17.3668 12.1953 18.6332 12.1953 19.4142 11.4142C20.1953 10.6332 20.1953 9.36683 19.4142 8.58579L11.4142 0.58579C11.3214 0.49293 11.2203 0.41002 11.1111 0.33706C11.002 0.2641 10.8867 0.202493 10.7654 0.15224C10.644 0.101987 10.519 0.06405 10.3902 0.03843C10.2614 0.01281 10.1313 0 10 0C9.86868 0 9.73862 0.01281 9.60982 0.03843C9.48102 0.06405 9.35595 0.101987 9.23463 0.15224C9.1133 0.202493 8.99804 0.2641 8.88886 0.33706C8.77966 0.41002 8.67864 0.49293 8.58579 0.58579L0.585788 8.58579C-0.195263 9.36683 -0.195263 10.6332 0.585788 11.4142C1.36683 12.1953 2.63317 12.1953 3.41421 11.4142L10 4.82843Z" fill-rule="evenodd" transform="matrix(1 0 0 1 14 22)" fill="rgb(0, 122, 255)"/>
		</g>
	</g>
</svg>
