<?xml version="1.0" encoding="utf-8" ?>
<svg xmlns="http://www.w3.org/2000/svg" xmlns:xlink="http://www.w3.org/1999/xlink" width="20" height="20.3175" viewBox="0 0 20 20.3175">
	<defs>
		<clipPath id="clipPath4166207838">
			<path d="M0 0L20 0L20 20.3175L0 20.3175L0 0Z" fill-rule="nonzero" transform="matrix(1 0 0 1 0 -3.87579e-05)"/>
		</clipPath>
	</defs>
	<g clip-path="url(#clipPath4166207838)">
		<defs>
			<mask id="mask6828001358" style="mask-type:alpha">
				<path d="M0 0L20 0L20 20L0 20L0 0Z" fill-rule="nonzero" transform="matrix(1 0 0 1 0 -3.87579e-05)" fill="rgb(0, 0, 0)"/>
			</mask>
		</defs>
		<g mask="url(#mask6828001358)">
			<circle cx="8.333333" cy="8.333333" r="8.333333" stroke-width="1.6666666" transform="matrix(1 0 0 1 1.66667 1.66663)" stroke="rgb(0, 122, 255)" fill="transparent"/>
			<path d="M0.833333 0C0.3731 0 0 0.3731 0 0.833333L0 4.16666C0 4.6269 0.3731 5 0.833333 5C1.29357 5 1.66667 4.6269 1.66667 4.16666L1.66667 0.833333C1.66667 0.3731 1.29357 0 0.833333 0Z" fill-rule="evenodd" transform="matrix(1 0 0 1 9.16667 9.16663)" fill="rgb(0, 122, 255)"/>
			<path d="M0.833333 1.66667C0.3731 1.66667 0 1.29357 0 0.833333C0 0.3731 0.3731 0 0.833333 0C1.3019 0 1.675 0.3731 1.675 0.833333C1.675 1.29357 1.3019 1.66667 0.833333 1.66667Z" fill-rule="evenodd" transform="matrix(1 0 0 1 9.16667 5.8333)" fill="rgb(0, 122, 255)"/>
		</g>
	</g>
</svg>
